<svg width="1920" height="520" viewBox="0 0 1920 520" fill="none" xmlns="http://www.w3.org/2000/svg">
<rect width="1920" height="520" fill="white"/>
<path d="M482.761 220.131C533.983 220.131 575.506 206.455 575.506 189.586C575.506 172.717 533.983 159.041 482.761 159.041C431.54 159.041 390.017 172.717 390.017 189.586C390.017 206.455 431.54 220.131 482.761 220.131Z" stroke="black" stroke-width="22" stroke-linecap="round" stroke-linejoin="round"/>
<path d="M390.017 190.141V333.652C389.96 338.582 393.467 343.444 400.243 347.829C407.019 352.214 416.866 355.992 428.952 358.846C441.039 361.7 455.011 363.546 469.692 364.228C484.372 364.91 499.331 364.408 513.306 362.765" stroke="black" stroke-width="22" stroke-linecap="round" stroke-linejoin="round"/>
<path d="M575.506 190.141V220.131" stroke="black" stroke-width="22" stroke-linecap="round" stroke-linejoin="round"/>
<path d="M565.64 253.067C571.64 244.477 583.244 241.74 592.466 247.034L592.91 247.296V247.297L593.346 247.568C602.241 253.276 605.271 264.782 600.646 274.108L600.416 274.557C600.382 274.623 600.346 274.688 600.31 274.753L600.021 275.271L599.905 275.47L588.033 295.507H592.458C599.645 295.507 606.242 299.297 609.923 305.392L610.27 305.99L610.596 306.597C613.75 312.708 613.661 320.01 610.354 326.041L610.012 326.639L579.691 377.808C574.003 387.408 561.713 390.701 552.037 385.156L551.578 384.885C541.902 379.007 538.844 366.398 544.584 356.711L556.456 336.677H552.031C544.843 336.677 538.246 332.884 534.565 326.789L534.219 326.192C530.623 319.762 530.72 311.881 534.477 305.542L564.797 254.375L564.918 254.176L565.234 253.673L565.354 253.487L565.64 253.067Z" fill="#F4C301" stroke="black" stroke-width="18" stroke-linecap="round" stroke-linejoin="round"/>
<path d="M390.017 261.227C390.032 266.079 393.439 270.862 399.968 275.196C406.496 279.529 415.965 283.293 427.618 286.186C439.271 289.079 452.786 291.022 467.085 291.86C481.384 292.697 496.071 292.406 509.974 291.01" stroke="black" stroke-width="22" stroke-linecap="round" stroke-linejoin="round"/>
<path d="M711.258 330V190H732.058V309.2H792.358V330H711.258ZM849.398 332.6C840.198 332.6 831.798 330.233 824.198 325.5C816.665 320.767 810.632 314.433 806.098 306.5C801.632 298.5 799.398 289.667 799.398 280C799.398 272.667 800.698 265.833 803.298 259.5C805.898 253.1 809.465 247.5 813.998 242.7C818.598 237.833 823.932 234.033 829.998 231.3C836.065 228.567 842.532 227.2 849.398 227.2C858.598 227.2 866.965 229.567 874.498 234.3C882.098 239.033 888.132 245.4 892.598 253.4C897.132 261.4 899.398 270.267 899.398 280C899.398 287.267 898.098 294.067 895.498 300.4C892.898 306.733 889.298 312.333 884.698 317.2C880.165 322 874.865 325.767 868.798 328.5C862.798 331.233 856.332 332.6 849.398 332.6ZM849.398 311.8C854.932 311.8 859.898 310.333 864.298 307.4C868.698 304.467 872.165 300.6 874.698 295.8C877.298 290.933 878.598 285.667 878.598 280C878.598 274.2 877.265 268.867 874.598 264C871.998 259.133 868.498 255.267 864.098 252.4C859.698 249.467 854.798 248 849.398 248C843.932 248 838.965 249.467 834.498 252.4C830.098 255.333 826.598 259.233 823.998 264.1C821.465 268.967 820.198 274.267 820.198 280C820.198 285.933 821.532 291.3 824.198 296.1C826.865 300.9 830.398 304.733 834.798 307.6C839.265 310.4 844.132 311.8 849.398 311.8ZM980.659 301.6L999.259 311.7C994.726 318.033 988.959 323.1 981.959 326.9C975.026 330.7 967.493 332.6 959.359 332.6C950.159 332.6 941.759 330.233 934.159 325.5C926.626 320.767 920.593 314.433 916.059 306.5C911.593 298.5 909.359 289.667 909.359 280C909.359 272.667 910.659 265.833 913.259 259.5C915.859 253.1 919.426 247.5 923.959 242.7C928.559 237.833 933.893 234.033 939.959 231.3C946.026 228.567 952.493 227.2 959.359 227.2C967.493 227.2 975.026 229.1 981.959 232.9C988.959 236.7 994.726 241.8 999.259 248.2L980.659 258.3C977.859 254.967 974.593 252.433 970.859 250.7C967.126 248.9 963.293 248 959.359 248C953.893 248 948.926 249.5 944.459 252.5C940.059 255.433 936.559 259.333 933.959 264.2C931.426 269 930.159 274.267 930.159 280C930.159 285.667 931.459 290.933 934.059 295.8C936.659 300.6 940.159 304.467 944.559 307.4C949.026 310.333 953.959 311.8 959.359 311.8C963.493 311.8 967.426 310.867 971.159 309C974.893 307.133 978.059 304.667 980.659 301.6ZM1092.57 230H1113.37V330H1092.47L1091.67 315.5C1088.74 320.633 1084.77 324.767 1079.77 327.9C1074.77 331.033 1068.87 332.6 1062.07 332.6C1054.74 332.6 1047.84 331.233 1041.37 328.5C1034.91 325.7 1029.21 321.833 1024.27 316.9C1019.41 311.967 1015.61 306.3 1012.87 299.9C1010.14 293.433 1008.77 286.5 1008.77 279.1C1008.77 271.967 1010.11 265.267 1012.77 259C1015.44 252.667 1019.14 247.133 1023.87 242.4C1028.61 237.667 1034.07 233.967 1040.27 231.3C1046.54 228.567 1053.24 227.2 1060.37 227.2C1067.64 227.2 1074.04 228.867 1079.57 232.2C1085.17 235.467 1089.81 239.667 1093.47 244.8L1092.57 230ZM1061.57 312.5C1067.44 312.5 1072.57 311.067 1076.97 308.2C1081.37 305.267 1084.77 301.333 1087.17 296.4C1089.64 291.467 1090.87 286 1090.87 280C1090.87 273.933 1089.64 268.433 1087.17 263.5C1084.71 258.567 1081.27 254.667 1076.87 251.8C1072.54 248.867 1067.44 247.4 1061.57 247.4C1055.77 247.4 1050.47 248.867 1045.67 251.8C1040.87 254.733 1037.07 258.667 1034.27 263.6C1031.47 268.533 1030.07 274 1030.07 280C1030.07 286.067 1031.51 291.567 1034.37 296.5C1037.31 301.367 1041.14 305.267 1045.87 308.2C1050.67 311.067 1055.91 312.5 1061.57 312.5ZM1134.11 330V180H1154.91V330H1134.11ZM1276.78 332.6C1269.12 332.6 1261.75 331.4 1254.68 329C1247.62 326.6 1241.45 323.167 1236.18 318.7C1230.92 314.167 1227.15 308.8 1224.88 302.6L1244.38 295.3C1245.52 298.5 1247.68 301.367 1250.88 303.9C1254.15 306.367 1258.02 308.3 1262.48 309.7C1267.02 311.1 1271.78 311.8 1276.78 311.8C1282.12 311.8 1287.12 310.933 1291.78 309.2C1296.52 307.467 1300.32 305.067 1303.18 302C1306.12 298.933 1307.58 295.333 1307.58 291.2C1307.58 286.933 1306.05 283.433 1302.98 280.7C1299.98 277.967 1296.12 275.8 1291.38 274.2C1286.72 272.6 1281.85 271.4 1276.78 270.6C1266.98 269 1258.18 266.667 1250.38 263.6C1242.65 260.533 1236.52 256.233 1231.98 250.7C1227.52 245.167 1225.28 237.967 1225.28 229.1C1225.28 220.767 1227.65 213.5 1232.38 207.3C1237.18 201.1 1243.48 196.3 1251.28 192.9C1259.15 189.433 1267.65 187.7 1276.78 187.7C1284.32 187.7 1291.58 188.9 1298.58 191.3C1305.65 193.633 1311.85 197.067 1317.18 201.6C1322.58 206.067 1326.45 211.5 1328.78 217.9L1309.08 225C1307.95 221.733 1305.78 218.9 1302.58 216.5C1299.38 214.033 1295.52 212.1 1290.98 210.7C1286.52 209.3 1281.78 208.6 1276.78 208.6C1271.45 208.533 1266.45 209.4 1261.78 211.2C1257.18 212.933 1253.42 215.333 1250.48 218.4C1247.55 221.467 1246.08 225.033 1246.08 229.1C1246.08 234.1 1247.45 237.9 1250.18 240.5C1252.92 243.1 1256.58 245.033 1261.18 246.3C1265.85 247.5 1271.05 248.6 1276.78 249.6C1285.98 251.067 1294.48 253.5 1302.28 256.9C1310.15 260.3 1316.45 264.833 1321.18 270.5C1325.98 276.1 1328.38 283 1328.38 291.2C1328.38 299.467 1325.98 306.733 1321.18 313C1316.45 319.2 1310.15 324.033 1302.28 327.5C1294.48 330.9 1285.98 332.6 1276.78 332.6ZM1470.75 333.6L1454.75 317.7C1449.15 322.233 1442.89 325.767 1435.95 328.3C1429.02 330.833 1421.69 332.1 1413.95 332.1C1404.42 332.1 1395.49 330.233 1387.15 326.5C1378.82 322.7 1371.49 317.5 1365.15 310.9C1358.82 304.233 1353.85 296.5 1350.25 287.7C1346.72 278.9 1344.95 269.5 1344.95 259.5C1344.95 249.5 1346.72 240.133 1350.25 231.4C1353.85 222.6 1358.82 214.867 1365.15 208.2C1371.49 201.533 1378.82 196.333 1387.15 192.6C1395.49 188.8 1404.42 186.9 1413.95 186.9C1423.49 186.9 1432.39 188.8 1440.65 192.6C1448.99 196.333 1456.32 201.533 1462.65 208.2C1468.99 214.867 1473.92 222.6 1477.45 231.4C1481.05 240.133 1482.85 249.5 1482.85 259.5C1482.85 267.633 1481.62 275.367 1479.15 282.7C1476.75 289.967 1473.42 296.633 1469.15 302.7L1485.45 318.9L1470.75 333.6ZM1413.95 311.3C1418.62 311.3 1423.15 310.533 1427.55 309C1432.02 307.467 1436.05 305.3 1439.65 302.5L1424.15 287.1L1438.85 272.3L1453.65 287.2C1456.45 283.2 1458.55 278.833 1459.95 274.1C1461.35 269.367 1462.05 264.5 1462.05 259.5C1462.05 252.367 1460.79 245.7 1458.25 239.5C1455.79 233.233 1452.32 227.733 1447.85 223C1443.45 218.2 1438.35 214.467 1432.55 211.8C1426.75 209.067 1420.55 207.7 1413.95 207.7C1407.29 207.7 1401.05 209.067 1395.25 211.8C1389.45 214.533 1384.32 218.3 1379.85 223.1C1375.45 227.833 1371.99 233.333 1369.45 239.6C1366.99 245.8 1365.75 252.433 1365.75 259.5C1365.75 266.633 1366.99 273.333 1369.45 279.6C1371.99 285.867 1375.49 291.4 1379.95 296.2C1384.42 300.933 1389.55 304.633 1395.35 307.3C1401.15 309.967 1407.35 311.3 1413.95 311.3ZM1504.62 330V190H1525.42V309.2H1585.72V330H1504.62Z" fill="black"/>
</svg>
