<svg width="280" height="280" viewBox="0 0 280 280" fill="none" xmlns="http://www.w3.org/2000/svg">
<g clip-path="url(#clip0_125_278)">
<rect width="280" height="280" rx="80" fill="white"/>
<path d="M142.937 104.105C189.052 104.105 226.437 91.7926 226.437 76.6047C226.437 61.4169 189.052 49.1047 142.937 49.1047C96.8207 49.1047 59.4365 61.4169 59.4365 76.6047C59.4365 91.7926 96.8207 104.105 142.937 104.105Z" stroke="black" stroke-width="20" stroke-linecap="round" stroke-linejoin="round"/>
<path d="M59.4371 77.1047V206.311C59.3856 210.749 62.5433 215.127 68.6439 219.074C74.7445 223.022 83.6094 226.424 94.4911 228.993C105.373 231.563 117.952 233.225 131.17 233.839C144.387 234.453 157.854 234.001 170.437 232.521" stroke="black" stroke-width="20" stroke-linecap="round" stroke-linejoin="round"/>
<path d="M226.437 77.1047V104.105" stroke="black" stroke-width="20" stroke-linecap="round" stroke-linejoin="round"/>
<path d="M217.383 134.193C222.675 126.208 233.266 123.599 241.654 128.415L242.053 128.65L242.442 128.894C250.406 134.004 253.119 144.306 248.978 152.656L248.772 153.059C248.742 153.117 248.71 153.175 248.678 153.232L248.418 153.699C248.385 153.759 248.35 153.817 248.315 153.876L237.534 172.07H241.698C248.132 172.07 254.038 175.464 257.334 180.921L257.646 181.456L257.938 182C260.762 187.471 260.682 194.009 257.721 199.408L257.414 199.944L230.116 246.013C225.023 254.608 214.02 257.556 205.358 252.592L204.947 252.35C196.285 247.087 193.546 235.796 198.686 227.123L209.466 208.931H205.302C198.866 208.931 192.96 205.535 189.665 200.078L189.354 199.544C186.135 193.786 186.222 186.731 189.586 181.055L216.884 134.987L216.991 134.812L217.276 134.357L217.383 134.193Z" fill="#F4C301" stroke="black" stroke-width="16" stroke-linecap="round" stroke-linejoin="round"/>
<path d="M59.4365 141.105C59.45 145.473 62.518 149.779 68.3957 153.681C74.2735 157.582 82.7982 160.971 93.2899 163.576C103.781 166.18 115.95 167.93 128.823 168.684C141.697 169.438 154.92 169.176 167.437 167.919" stroke="black" stroke-width="20" stroke-linecap="round" stroke-linejoin="round"/>
</g>
<defs>
<clipPath id="clip0_125_278">
<rect width="280" height="280" rx="80" fill="white"/>
</clipPath>
</defs>
</svg>
